Land_normalized_Precision Landing13_filtered_grf
version=1
nRows=22
nColumns=37
inDegrees=yes
endheader
time		1_ground_force_vx		1_ground_force_vy		1_ground_force_vz		1_ground_force_px		1_ground_force_py		1_ground_force_pz		1_ground_torque_x		1_ground_torque_y		1_ground_torque_z		2_ground_force_vx		2_ground_force_vy		2_ground_force_vz		2_ground_force_px		2_ground_force_py		2_ground_force_pz		2_ground_torque_x		2_ground_torque_y		2_ground_torque_z		3_ground_force_vx		3_ground_force_vy		3_ground_force_vz		3_ground_force_px		3_ground_force_py		3_ground_force_pz		3_ground_torque_x		3_ground_torque_y		3_ground_torque_z		4_ground_force_vx		4_ground_force_vy		4_ground_force_vz		4_ground_force_px		4_ground_force_py		4_ground_force_pz		4_ground_torque_x		4_ground_torque_y		4_ground_torque_z		
0.969500		13.259239		23.018831		-36.280063		0.072081		0.000000		0.529049		-0.646977		-1.123190		1.770264		-1.246826		54.531195		-21.254515		-0.157252		0.000000		0.390066		0.062570		-2.736565		1.066625		3.779539		-0.252407		-0.495579		0.353229		1.255250		1.891695		0.006515		0.012178		0.061992		-16.125610		0.385941		-2.986703		-0.289305		1.264871		1.901596		0.001723		-0.000041		0.000319		
0.972732		9.511840		78.402407		44.615967		0.119907		0.000000		0.261187		-0.014517		-0.122350		-0.070950		7.093450		151.480665		40.208143		-0.161590		0.000000		0.292745		0.315635		6.706310		1.793108		3.755143		-0.258475		-0.487994		0.353246		1.255270		1.891682		0.003467		0.010619		0.061755		-16.297464		0.480072		-2.824747		-0.289271		1.264869		1.901555		0.001961		-0.000058		0.000340		
0.975965		-3.884395		165.059971		175.819570		0.119421		0.000000		0.189032		0.036765		-1.554922		-1.656726		22.347627		282.098335		139.717536		-0.187738		0.000000		0.263941		1.506421		19.014112		9.418113		3.745841		-0.257027		-0.532156		0.353277		1.255277		1.891656		0.000523		0.008072		0.059486		-16.539626		0.610385		-2.711766		-0.289222		1.264863		1.901508		0.002405		-0.000089		0.000394		
0.979197		-27.520356		289.187333		334.358849		0.120802		0.000000		0.173055		0.377725		-3.967429		-4.587024		44.705066		439.749636		262.085262		-0.200775		0.000000		0.255455		3.291707		32.378324		19.297405		3.756662		-0.254147		-0.607159		0.353323		1.255271		1.891618		-0.001495		0.005693		0.055582		-16.808541		0.758276		-2.668220		-0.289158		1.264858		1.901458		0.003485		-0.000157		0.000553		
0.982429		-57.614969		460.267454		476.510745		0.117773		0.000000		0.185463		0.785277		-6.273663		-6.495601		72.368796		621.862783		377.206308		-0.203265		0.000000		0.261230		5.328781		45.790403		27.775410		3.784170		-0.254410		-0.673346		0.353385		1.255255		1.891567		-0.002015		0.004732		0.051058		-17.061470		0.891738		-2.688560		-0.289085		1.264851		1.901406		0.005810		-0.000304		0.000916		
0.985662		-86.242592		693.677496		551.550048		0.111431		0.000000		0.213784		0.703842		-5.657770		-4.507239		101.396520		836.148111		448.446545		-0.196611		0.000000		0.279153		6.917587		57.044304		30.598413		3.818935		-0.261890		-0.692337		0.353457		1.255232		1.891506		-0.000831		0.006068		0.047209		-17.269049		0.976076		-2.748777		-0.289009		1.264845		1.901354		0.009795		-0.000554		0.001559		
0.988894		-103.559142		1001.389509		523.395855		0.106454		0.000000		0.247220		-0.291929		2.835486		1.468967		125.804800		1093.530576		445.742569		-0.184418		0.000000		0.304604		7.035747		61.150369		24.935684		3.849940		-0.278022		-0.646322		0.353531		1.255209		1.891439		0.001751		0.009726		0.045203		-17.416986		0.988795		-2.815354		-0.288940		1.264841		1.901303		0.015147		-0.000860		0.002449		
0.992126		-101.930574		1374.461465		388.015947		0.107340		0.000000		0.278122		-1.537825		20.763825		5.847568		139.423507		1391.385844		357.466384		-0.173213		0.000000		0.331337		5.211040		51.981119		13.374041		3.866228		-0.299028		-0.543295		0.353599		1.255189		1.891373		0.005007		0.014744		0.045705		-17.504057		0.929963		-2.856476		-0.288883		1.264839		1.901253		0.020732		-0.001101		0.003383		
0.995359		-80.470009		1766.454211		181.939978		0.112769		0.000000		0.302761		-1.875238		41.192977		4.235532		139.328724		1698.068707		199.148863		-0.167775		0.000000		0.354469		2.428620		29.564992		3.487016		3.856079		-0.317984		-0.411211		0.353653		1.255178		1.891312		0.008061		0.019527		0.048686		-17.541106		0.824050		-2.851799		-0.288840		1.264838		1.901206		0.024997		-0.001175		0.004064		
0.998591		-47.232437		2096.416168		-27.170529		0.118580		0.000000		0.319953		-1.266318		56.216486		-0.729673		128.169862		1954.114469		12.697289		-0.167502		0.000000		0.371364		0.152889		2.310997		0.023544		3.813110		-0.327864		-0.286088		0.353692		1.255175		1.891260		0.010146		0.022590		0.053493		-17.542896		0.708073		-2.799390		-0.288813		1.264839		1.901163		0.026750		-0.001080		0.004269		
1.001823		-16.737925		2276.545505		-164.721614		0.122565		0.000000		0.329868		-0.463951		63.107703		-4.566336		113.112689		2094.040420		-144.676912		-0.169072		0.000000		0.380748		-1.058391		-19.608138		1.359889		3.746610		-0.321553		-0.202617		0.353715		1.255179		1.891218		0.010741		0.023268		0.058990		-17.515724		0.614510		-2.713195		-0.288797		1.264842		1.901124		0.025768		-0.000904		0.003991		
1.005056		-2.704328		2257.830644		-180.086191		0.124123		0.000000		0.332939		-0.074820		62.465856		-4.982360		101.881106		2081.354126		-221.102836		-0.169666		0.000000		0.381920		-1.448027		-29.582273		3.142639		3.684288		-0.292285		-0.186491		0.353726		1.255186		1.891187		0.009658		0.022063		0.063693		-17.452763		0.559860		-2.613802		-0.288789		1.264844		1.901088		0.022835		-0.000732		0.003420		
1.008288		-10.342353		2056.775136		-67.741442		0.122717		0.000000		0.328586		-0.279790		55.663011		-1.834212		98.571256		1927.784750		-190.572498		-0.167762		0.000000		0.374098		-1.277668		-24.993612		2.472423		3.659978		-0.237150		-0.248979		0.353727		1.255194		1.891166		0.007059		0.020259		0.066144		-17.342813		0.544133		-2.518469		-0.288791		1.264846		1.901057		0.019180		-0.000602		0.002785		
1.011520		-32.832155		1747.684554		127.531436		0.117353		0.000000		0.314502		-0.826952		44.024517		3.211814		101.992351		1688.119695		-66.194729		-0.163505		0.000000		0.356813		-0.402830		-6.672139		0.263662		3.690922		-0.164640		-0.378799		0.353727		1.255200		1.891153		0.003523		0.019101		0.065616		-17.186678		0.555833		-2.434462		-0.288799		1.264846		1.901029		0.015836		-0.000513		0.002243		
1.014753		-56.066444		1420.618216		334.041121		0.107339		0.000000		0.286945		-1.133485		28.753600		6.750070		107.412297		1428.284936		108.494645		-0.159870		0.000000		0.330930		1.579158		20.955536		1.619466		3.765401		-0.100400		-0.537733		0.353727		1.255200		1.891143		-0.000062		0.019062		0.062666		-17.002932		0.578985		-2.361057		-0.288814		1.264842		1.901006		0.013274		-0.000452		0.001843		
1.017985		-67.637837		1147.843228		485.276445		0.094384		0.000000		0.245160		-0.786809		13.354550		5.644526		109.012289		1200.043705		277.401751		-0.161853		0.000000		0.300522		4.355691		47.945471		11.086694		3.850725		-0.084387		-0.666912		0.353729		1.255196		1.891137		-0.002677		0.019666		0.059175		-16.824778		0.595764		-2.296304		-0.288833		1.264837		1.900989		0.011459		-0.000406		0.001564		
1.021217		-63.438793		966.779050		546.322500		0.080751		0.000000		0.198027		-0.275173		4.192633		2.367168		101.847372		1030.853961		395.280165		-0.169139		0.000000		0.272648		6.322535		63.993067		24.551827		3.917425		-0.151104		-0.710023		0.353729		1.255189		1.891132		-0.003506		0.019959		0.057300		-16.689751		0.590071		-2.244357		-0.288855		1.264833		1.900981		0.010171		-0.000360		0.001368		
1.024449		-48.194290		878.435990		524.729525		0.067917		0.000000		0.165905		-0.252020		4.596763		2.745637		83.959329		925.549790		443.102567		-0.173403		0.000000		0.255156		6.180438		68.134151		32.619657		3.954578		-0.298047		-0.642217		0.353722		1.255182		1.891126		-0.002416		0.019209		0.057963		-16.627922		0.554118		-2.215069		-0.288876		1.264833		1.900979		0.009287		-0.000310		0.001238		
1.027682		-29.872331		862.035427		455.603921		0.061470		0.000000		0.164717		-0.431654		12.487302		6.594788		57.837521		875.773507		427.990626		-0.169456		0.000000		0.252254		4.285134		64.875646		31.705378		3.969387		-0.478855		-0.482767		0.353705		1.255178		1.891123		-0.000047		0.017361		0.060101		-16.655126		0.492178		-2.216620		-0.288893		1.264839		1.900984		0.008910		-0.000263		0.001186		
1.030914		-14.351371		885.780266		381.460946		0.066226		0.000000		0.189033		-0.334960		20.691684		8.909216		30.629288		864.570143		376.251779		-0.160934		0.000000		0.260890		2.039653		57.549383		25.046872		3.984193		-0.624419		-0.291064		0.353674		1.255180		1.891122		0.002442		0.015016		0.061413		-16.765068		0.421925		-2.247529		-0.288904		1.264850		1.900994		0.009235		-0.000233		0.001238		
1.034146		-3.428223		919.437244		331.907114		0.077556		0.000000		0.220771		-0.086047		23.056767		8.323622		10.911181		872.674029		318.431543		-0.154412		0.000000		0.273674		0.613996		49.055768		17.902714		4.028765		-0.682874		-0.136610		0.353634		1.255185		1.891126		0.003995		0.012928		0.060252		-16.933181		0.369105		-2.298467		-0.288907		1.264863		1.901006		0.010240		-0.000223		0.001389		
1.037379		3.835751		941.311715		315.670247		0.087355		0.000000		0.244778		0.083940		20.624220		6.916473		3.996142		882.609659		277.610309		-0.152635		0.000000		0.283860		0.194073		42.859894		13.481607		4.122790		-0.647830		-0.067277		0.353588		1.255190		1.891137		0.004192		0.011569		0.056971		-17.124800		0.357092		-2.359892		-0.288906		1.264873		1.901020		0.011444		-0.000239		0.001577		
